<svg width="405" height="343" viewBox="0 0 405 343" fill="none" xmlns="http://www.w3.org/2000/svg">
<g filter="url(#filter0_d_410_490)">
<circle cx="342" cy="56.1133" r="47" fill="white"/>
<circle cx="342" cy="56.1133" r="46.5" stroke="#CDCDCD" stroke-opacity="0.3"/>
</g>
<path d="M341 76.9466C341 76.9466 357.666 68.6132 357.666 56.1132V41.5299L341 35.2799L324.333 41.5299V56.1132C324.333 68.6132 341 76.9466 341 76.9466Z" fill="#349DBE"/>
<rect opacity="0.5" y="92.1786" width="147.751" height="30.2483" rx="15.1241" fill="#DBDBDB"/>
<rect opacity="0.5" y="138.714" width="108.196" height="30.2483" rx="15.1241" fill="#DBDBDB"/>
<path d="M255.871 109.308C255.793 107.248 256.178 101.498 258.34 94.9766" stroke="#349DBE" stroke-width="3.49019" stroke-linecap="round"/>
<path d="M289.539 126.321L300.535 115.938" stroke="#349DBE" stroke-width="3.49019" stroke-linecap="round"/>
<path d="M305.794 162.176L320.267 159.711" stroke="#349DBE" stroke-width="3.49019" stroke-linecap="round"/>
<path fill-rule="evenodd" clip-rule="evenodd" d="M229.825 110.783C233.258 106.754 235.581 101.815 235.193 96.2819C234.075 80.3385 211.881 83.8458 207.564 91.8927C203.247 99.9395 203.76 120.351 209.339 121.789C211.564 122.363 216.304 120.958 221.129 118.05L218.1 139.473H235.98L229.825 110.783Z" fill="#B28B67"/>
<path fill-rule="evenodd" clip-rule="evenodd" d="M242.986 90.9747C243.563 90.4024 243.878 89.5856 244.151 88.8099C244.434 88.0042 244.709 87.1902 244.896 86.3515C245.272 84.6758 245.275 82.7488 244.08 81.4476C243.121 80.4042 241.683 79.9362 240.355 79.8345C239.471 79.7667 238.562 79.8906 237.714 80.1693C236.873 80.4458 236.148 80.9969 235.333 81.3389C235.301 79.5332 234.992 77.6437 234.076 76.1018C233.194 74.6183 231.789 73.7858 230.188 73.5656C228.545 73.3395 226.923 73.724 225.452 74.5193C225.084 74.7185 224.719 74.9272 224.37 75.1634C224.078 75.3612 223.774 75.5994 223.431 75.6798C223.049 75.7696 222.859 75.5487 222.611 75.2698C222.319 74.9427 221.991 74.6546 221.644 74.3993C220.108 73.2702 218.092 72.806 216.313 73.4828C215.493 73.7946 214.696 74.3241 214.139 75.0538C213.643 75.7042 213.29 76.736 212.605 77.1891C212.315 77.3815 212.11 77.1266 211.846 76.9383C211.448 76.6552 211.07 76.3429 210.668 76.0676C210.103 75.6808 209.492 75.3914 208.837 75.24C207.879 75.0183 206.554 75.0702 206.28 76.3254C206.177 76.7969 206.256 77.3011 206.29 77.7762C206.335 78.4285 206.383 79.0805 206.439 79.7318C206.482 80.2264 206.537 80.704 206.63 81.1896C206.68 81.4485 206.836 81.9311 206.725 82.1903C206.586 82.5144 205.946 82.3302 205.672 82.3414C205.132 82.3637 204.589 82.4585 204.09 82.6893C203.703 82.8683 203.296 83.1315 203.132 83.5752C203.032 83.8478 203.058 84.1278 203.106 84.4082C203.163 84.7448 203.097 84.9233 203.055 85.2629C202.329 84.9056 199.815 84.1117 199.498 85.4121C199.393 85.8451 199.633 86.3344 199.816 86.6996C200.137 87.3401 200.558 87.9255 200.988 88.4838C201.885 89.6484 202.957 90.653 204.109 91.5121C202.759 92.1125 202.406 93.8834 203.576 94.9386C204.092 95.4044 204.786 95.5081 205.437 95.4783C205.676 95.4674 206.019 95.3758 206.207 95.4173C206.308 95.4396 206.416 95.5252 206.556 95.5347C207.475 95.5977 208.512 95.3762 209.411 95.1723C211.011 94.8089 212.527 94.0505 213.765 92.8953C214.082 92.599 214.344 92.4285 214.772 92.4328C215.146 92.4366 215.514 92.5393 215.888 92.5488C216.878 92.5741 217.77 92.0901 218.689 91.768C218.746 93.0098 219.099 94.3775 219.607 95.4946C220.022 96.4056 220.887 96.538 221.737 96.6179C224.455 96.8737 227.183 96.5883 229.904 96.5921C227.27 97.1876 224.547 97.433 221.936 98.1338C220.756 98.4505 221.657 99.246 222.162 99.7975C222.993 100.706 223.61 101.831 224.039 103.016C225.328 101.336 227.606 100.229 229.624 100.745C231.854 101.315 233.424 104.331 231.998 106.499C231.17 107.758 229.675 108.243 228.431 108.784C229.402 109.793 229.637 111.283 230.221 112.538C230.509 113.157 230.913 113.857 231.557 114.073C231.796 114.153 232.075 114.16 232.263 114.354C232.496 114.595 232.552 114.863 232.849 115.07C234.036 115.895 235.89 115.832 236.942 114.755C237.894 113.781 237.646 112.24 236.852 111.252C238.116 110.725 240.421 110.047 239.918 108.076C242.659 107.894 249.313 103.449 245.635 100.201C247.654 99.0603 249.508 96.2719 248.212 93.8139C247.213 91.9212 244.891 91.0751 242.986 90.9747Z" fill="#191847"/>
<path fill-rule="evenodd" clip-rule="evenodd" d="M268.296 232.598H210.741L203.2 324.978H288.875L268.296 232.598Z" fill="#C5CFD6"/>
<path fill-rule="evenodd" clip-rule="evenodd" d="M268.296 232.598H250.595L240 324.978H288.875L268.296 232.598Z" fill="black" fill-opacity="0.1"/>
<path fill-rule="evenodd" clip-rule="evenodd" d="M145.123 216.772C138.987 213.087 128.691 217.821 128.698 223.091C128.72 238.859 143.109 313.171 143.861 317.869C144.612 322.566 152.66 323.807 153.129 317.884C153.875 308.459 155.26 275.833 153.874 260.732C153.302 254.498 152.685 248.561 152.079 243.265C159.629 256.901 171.307 276.424 187.112 301.834L195.691 297.914C188.954 275.716 183.429 260.045 179.118 250.9C171.735 235.243 164.812 221.834 161.899 217.111C157.316 209.682 149.338 212.274 145.123 216.772Z" fill="#B28B67"/>
<path fill-rule="evenodd" clip-rule="evenodd" d="M195.08 285.587L165.632 215.826C158.577 204.478 138.798 218.136 141.203 224.718C146.665 239.66 174.443 288.037 176.07 292.489L195.08 285.587Z" fill="#1D1D2A"/>
<path fill-rule="evenodd" clip-rule="evenodd" d="M196.713 293.515C198.548 295.025 199.741 296.258 200.293 297.215C200.965 298.378 201.751 300.188 202.653 302.644C201.303 303.423 189.173 310.426 166.263 323.654C163.512 321.073 163.084 319.07 164.977 317.645C166.871 316.219 168.433 315.017 169.665 314.038L182.225 296.733C182.467 296.4 182.933 296.326 183.266 296.567C183.271 296.572 183.277 296.576 183.282 296.58L185.892 298.59C188.286 298.381 190.073 297.936 191.252 297.255C192.21 296.702 193.31 295.551 194.552 293.803L194.551 293.803C195.028 293.132 195.958 292.974 196.629 293.45C196.658 293.471 196.686 293.492 196.713 293.515Z" fill="#E4E4E4"/>
<path fill-rule="evenodd" clip-rule="evenodd" d="M155.015 314.103C155.849 316.328 156.266 317.993 156.266 319.097C156.266 320.441 156.042 322.401 155.594 324.978C154.036 324.978 140.029 324.978 113.575 324.978C112.483 321.369 113.113 319.42 115.466 319.132C117.818 318.844 119.773 318.584 121.329 318.352L140.859 309.646C141.235 309.478 141.675 309.647 141.843 310.023C141.846 310.029 141.848 310.036 141.851 310.042L143.107 313.087C145.284 314.103 147.054 314.612 148.416 314.612C149.522 314.612 151.05 314.165 152.999 313.271L152.999 313.271C153.747 312.928 154.632 313.257 154.975 314.005C154.989 314.037 155.003 314.07 155.015 314.103Z" fill="#E4E4E4"/>
<path fill-rule="evenodd" clip-rule="evenodd" d="M126.635 228.451C126.635 248.243 136.035 294.411 136.041 298.769L156.264 298.785C153.304 257.59 152.255 236.77 153.115 236.326C154.407 235.661 206.048 241.482 221.537 241.482C243.871 241.482 253.11 227.399 253.859 201.308H209.617C200.608 202.272 153.62 211.75 136.17 215.008C128.699 216.403 126.635 222.999 126.635 228.451Z" fill="#2A2A36"/>
<path fill-rule="evenodd" clip-rule="evenodd" d="M202.727 154.894L176.868 140.731C172.568 135.625 168.331 131.659 164.157 128.834C162.882 128.301 160.652 127.979 162.737 131.681C164.823 135.383 166.85 139.37 165.788 140.511C164.725 141.651 162.076 140.058 160.808 141.953C159.963 143.216 164.49 145.212 174.388 147.94L193.177 165.143L202.727 154.894ZM162.227 166.844L150.868 160.604C149.274 154.539 147.369 151.488 145.153 151.45C143.45 150.658 146.415 158.321 143.187 157.656C139.959 156.992 132.081 151.132 130.724 152.322C128.715 154.082 130.506 159.487 132.616 162.175C136.559 167.2 139.824 168.918 147.894 171.168C152.114 172.345 156.676 174.703 161.58 178.242L162.227 166.844Z" fill="#997659"/>
<path fill-rule="evenodd" clip-rule="evenodd" d="M215.317 151.739C206.26 151.643 194.182 149.73 181.294 141.55L176.233 152.837C185.122 161.659 197.622 168.907 208.551 168.6C217.164 168.358 221.566 157.94 215.317 151.739Z" fill="#24994C"/>
<path fill-rule="evenodd" clip-rule="evenodd" d="M203.123 169.84C193.507 172.238 177.383 169.41 154.749 161.356C149.135 172.971 146.54 181.251 146.963 186.197C166.38 196.34 183.021 200.862 196.732 201.16C196.296 209.295 197.286 217.036 200.613 224.109C207.451 238.651 247.495 225.184 260.958 227.834C269.39 200.452 253.087 189.324 253.074 171.803C253.06 152.616 237.654 123.083 235.387 123.083L214.716 123.083C213.575 137.736 207.834 153.886 203.123 169.84Z" fill="#349DBE"/>
<path d="M147 124.113H131C129.895 124.113 129 125.009 129 126.113V136.113C129 137.218 129.895 138.113 131 138.113H147C148.105 138.113 149 137.218 149 136.113V126.113C149 125.009 148.105 124.113 147 124.113Z" stroke="#349DBE" stroke-width="2" stroke-linecap="round" stroke-linejoin="round"/>
<path d="M143 138.113V122.113C143 121.583 142.789 121.074 142.414 120.699C142.039 120.324 141.53 120.113 141 120.113H137C136.47 120.113 135.961 120.324 135.586 120.699C135.211 121.074 135 121.583 135 122.113V138.113" stroke="#349DBE" stroke-width="2" stroke-linecap="round" stroke-linejoin="round"/>
<defs>
<filter id="filter0_d_410_490" x="286.848" y="0.9612" width="117.777" height="117.777" filterUnits="userSpaceOnUse" color-interpolation-filters="sRGB">
<feFlood flood-opacity="0" result="BackgroundImageFix"/>
<feColorMatrix in="SourceAlpha" type="matrix" values="0 0 0 0 0 0 0 0 0 0 0 0 0 0 0 0 0 0 127 0" result="hardAlpha"/>
<feOffset dx="3.73637" dy="3.73637"/>
<feGaussianBlur stdDeviation="5.94423"/>
<feColorMatrix type="matrix" values="0 0 0 0 0.396424 0 0 0 0 0.408333 0 0 0 0 0.40048 0 0 0 0.14 0"/>
<feBlend mode="normal" in2="BackgroundImageFix" result="effect1_dropShadow_410_490"/>
<feBlend mode="normal" in="SourceGraphic" in2="effect1_dropShadow_410_490" result="shape"/>
</filter>
</defs>
</svg>
