<svg width="24" height="27" viewBox="0 0 24 27" fill="none" xmlns="http://www.w3.org/2000/svg">
<path fill-rule="evenodd" clip-rule="evenodd" d="M14.205 3.84069C12.9717 2.65727 11.0244 2.65727 9.79114 3.84069L3.23702 10.1297C3.07643 10.2838 2.96842 10.4846 2.92827 10.7035C2.14325 14.9844 2.08531 19.3671 2.75687 23.6673L2.91627 24.688H7.13292V15.8886C7.13292 15.3018 7.60862 14.8261 8.19542 14.8261H15.8007C16.3875 14.8261 16.8632 15.3018 16.8632 15.8886V24.688H21.0798L21.2392 23.6673C21.9108 19.3671 21.8529 14.9844 21.0678 10.7035C21.0277 10.4846 20.9197 10.2838 20.7591 10.1297L14.205 3.84069ZM8.31986 2.30741C10.3754 0.335031 13.6207 0.335031 15.6762 2.30741L22.2304 8.59646C22.7128 9.05942 23.0374 9.66248 23.158 10.3202C23.9861 14.836 24.0472 19.4591 23.3388 23.9952L23.0827 25.6349C22.9768 26.3131 22.3927 26.813 21.7064 26.813H15.8007C15.2139 26.813 14.7382 26.3373 14.7382 25.7505V16.9511H9.25792V25.7505C9.25792 26.3373 8.78223 26.813 8.19542 26.813H2.28973C1.60337 26.813 1.0193 26.3131 0.913398 25.6349L0.657318 23.9952C-0.0510835 19.4591 0.0100419 14.836 0.838126 10.3202C0.958731 9.66248 1.28327 9.05942 1.76574 8.59646L8.31986 2.30741Z" fill="#242424"/>
</svg>
