<svg width="25" height="26" viewBox="0 0 25 26" fill="none" xmlns="http://www.w3.org/2000/svg">
<path fill-rule="evenodd" clip-rule="evenodd" d="M3.27413 9.96356C5.80615 15.4771 10.3118 19.8605 15.913 22.2356L15.9307 22.2431L17.0128 22.7255C18.3907 23.3394 20.0102 22.9033 20.8937 21.6806L22.699 19.182C22.8093 19.0294 22.7809 18.8172 22.6343 18.6989L19.4826 16.1563C19.3259 16.0299 19.0955 16.0594 18.9757 16.2211L17.749 17.8763C17.4511 18.2783 16.9132 18.418 16.4573 18.2117C12.2691 16.3163 8.90351 12.9507 7.00811 8.76244C6.80182 8.30661 6.9415 7.76863 7.34348 7.47073L8.99868 6.2441C9.16042 6.12424 9.18986 5.89385 9.06346 5.73717L6.52048 2.58503C6.40229 2.43852 6.19015 2.41007 6.03753 2.52025L3.52537 4.3338C2.29458 5.22232 1.86114 6.85552 2.48938 8.23741L3.27328 9.96172L3.27413 9.96356ZM15.0745 24.1882C8.98844 21.6048 4.09334 16.8405 1.34211 10.8484L1.34045 10.8448L0.554906 9.11686C-0.492152 6.81371 0.230246 4.09172 2.28155 2.61085L4.79372 0.797296C5.86206 0.0260538 7.34705 0.225244 8.17437 1.25076L10.7174 4.40291C11.6021 5.49965 11.3961 7.11237 10.2639 7.95138L9.31545 8.65426C10.9176 11.763 13.4568 14.3022 16.5655 15.9043L17.2684 14.9559C18.1074 13.8237 19.7201 13.6176 20.8169 14.5024L23.9686 17.045C24.9944 17.8726 25.1934 19.3582 24.4215 20.4265L22.6161 22.9252C21.1437 24.963 18.4444 25.6897 16.1479 24.6665L15.0745 24.1882Z" fill="#242424"/>
<path fill-rule="evenodd" clip-rule="evenodd" d="M22.5824 1.71002C22.7817 1.90928 22.8936 2.17953 22.8936 2.46133V7.88493C22.8936 8.47173 22.4179 8.94743 21.8311 8.94743C21.2443 8.94743 20.7686 8.47173 20.7686 7.88493V5.02643L16.2934 9.50169C15.8784 9.91662 15.2057 9.91662 14.7908 9.50169C14.3758 9.08676 14.3758 8.41402 14.7908 7.99909L19.266 3.52383L16.4075 3.52383C15.8207 3.52383 15.345 3.04813 15.345 2.46133C15.345 1.87452 15.8207 1.39883 16.4075 1.39883H21.8311C22.1129 1.39883 22.3832 1.51077 22.5824 1.71002Z" fill="#242424"/>
</svg>
