<svg width="371" height="356" viewBox="0 0 371 356" fill="none" xmlns="http://www.w3.org/2000/svg">
<g filter="url(#filter0_d_410_489)">
<circle cx="56" cy="55.3237" r="47" fill="white"/>
<circle cx="56" cy="55.3237" r="46.5" stroke="#CDCDCD" stroke-opacity="0.3"/>
</g>
<circle cx="56" cy="55.3237" r="29" fill="#349DBE"/>
<circle cx="56" cy="55.3237" r="28.5" stroke="#CDCDCD" stroke-opacity="0.3"/>
<path d="M59.6667 53.4899H52.3333C51.3609 53.4899 50.4282 53.1036 49.7406 52.4159C49.053 51.7283 48.6667 50.7957 48.6667 49.8232C48.6667 48.8507 49.053 47.9181 49.7406 47.2305C50.4282 46.5428 51.3609 46.1565 52.3333 46.1565H61.5C61.9862 46.1565 62.4525 46.3497 62.7964 46.6935C63.1402 47.0373 63.3333 47.5036 63.3333 47.9899C63.3333 48.4761 63.5265 48.9424 63.8703 49.2862C64.2141 49.63 64.6804 49.8232 65.1667 49.8232C65.6529 49.8232 66.1192 49.63 66.463 49.2862C66.8068 48.9424 67 48.4761 67 47.9899C67 46.5312 66.4205 45.1322 65.3891 44.1008C64.3576 43.0693 62.9587 42.4899 61.5 42.4899H57.8333V38.8232C57.8333 38.337 57.6402 37.8707 57.2964 37.5268C56.9525 37.183 56.4862 36.9899 56 36.9899C55.5138 36.9899 55.0475 37.183 54.7036 37.5268C54.3598 37.8707 54.1667 38.337 54.1667 38.8232V42.4899H52.3333C50.3884 42.4899 48.5232 43.2625 47.1479 44.6378C45.7726 46.013 45 47.8783 45 49.8232C45 51.7681 45.7726 53.6334 47.1479 55.0087C48.5232 56.3839 50.3884 57.1565 52.3333 57.1565H59.6667C60.6391 57.1565 61.5718 57.5428 62.2594 58.2305C62.947 58.9181 63.3333 59.8507 63.3333 60.8232C63.3333 61.7957 62.947 62.7283 62.2594 63.4159C61.5718 64.1036 60.6391 64.4899 59.6667 64.4899H50.5C50.0138 64.4899 49.5475 64.2967 49.2036 63.9529C48.8598 63.6091 48.6667 63.1428 48.6667 62.6565C48.6667 62.1703 48.4735 61.704 48.1297 61.3602C47.7859 61.0164 47.3196 60.8232 46.8333 60.8232C46.3471 60.8232 45.8808 61.0164 45.537 61.3602C45.1932 61.704 45 62.1703 45 62.6565C45 64.1152 45.5795 65.5142 46.6109 66.5456C47.6424 67.5771 49.0413 68.1565 50.5 68.1565H54.1667V71.8232C54.1667 72.3094 54.3598 72.7757 54.7036 73.1196C55.0475 73.4634 55.5138 73.6565 56 73.6565C56.4862 73.6565 56.9525 73.4634 57.2964 73.1196C57.6402 72.7757 57.8333 72.3094 57.8333 71.8232V68.1565H59.6667C61.6116 68.1565 63.4768 67.3839 64.8521 66.0087C66.2274 64.6334 67 62.7681 67 60.8232C67 58.8783 66.2274 57.013 64.8521 55.6378C63.4768 54.2625 61.6116 53.4899 59.6667 53.4899V53.4899Z" fill="white"/>
<rect opacity="0.5" x="180.551" y="82.2266" width="190.185" height="38.9356" rx="19.4678" fill="#DBDBDB"/>
<rect opacity="0.5" x="180.551" y="142.127" width="139.27" height="38.9356" rx="19.4678" fill="#DBDBDB"/>
<path fill-rule="evenodd" clip-rule="evenodd" d="M167.641 80.8965C172.275 88.772 180.619 107.442 178.291 111.329L158.518 116.627C158.507 116.592 158.496 116.558 158.484 116.523C150.938 117.676 143.573 112.99 141.552 105.445L137.819 91.5128C135.649 83.4167 140.454 75.0949 148.55 72.9256L149.914 72.5602C157.175 70.6145 164.618 74.2789 167.641 80.8965Z" fill="#191847"/>
<path fill-rule="evenodd" clip-rule="evenodd" d="M148.539 100.807C144.418 97.9936 141.091 94.0839 140.101 88.9693C137.25 74.2327 158.414 71.9717 164.321 78.2124C170.228 84.453 174.72 103.094 169.963 105.767C168.066 106.833 163.386 106.721 158.264 105.266L166.243 123.956L149.879 128.341L148.539 100.807Z" fill="#B28B67"/>
<path fill-rule="evenodd" clip-rule="evenodd" d="M152.305 97.1782C155.21 105.003 157.364 114.251 155.7 117.029L135.927 122.327C129.742 103.65 142.358 108.144 137.572 90.2816C138.063 89.4609 138.52 88.6566 138.994 87.9415L138.831 87.4221C140.393 79.5572 143.806 74.9196 149.07 73.5092C156.966 71.3936 160.434 74.3672 163.384 76.8902C163.243 82.7116 157.3 85.1617 152.73 89.9914C151.946 89.6448 151.04 89.5539 150.144 89.7939C148.073 90.3489 146.84 92.4628 147.39 94.5156C147.94 96.5684 150.065 97.7826 152.136 97.2276C152.193 97.2123 152.25 97.1958 152.305 97.1782Z" fill="#191847"/>
<path fill-rule="evenodd" clip-rule="evenodd" d="M132.004 254.3C148.937 259.018 163.547 261.377 175.833 261.377C188.119 261.377 199.531 257.744 210.068 250.478C193.497 245.636 179.85 243.214 169.128 243.214C158.405 243.214 146.03 246.91 132.004 254.3Z" fill="#1D1D2A"/>
<path fill-rule="evenodd" clip-rule="evenodd" d="M190.494 268.177C190.331 267.933 190.193 267.667 190.084 267.379C187.82 261.416 151.565 197.09 147.953 185.329H188.771C191.517 194.271 203.878 250.385 205.617 261.58C211.106 279.24 222.406 336.433 223.848 340.395C225.366 344.563 216.827 348.906 214.552 343.781C210.931 335.628 202.305 313.067 198.464 299.292C194.863 286.378 191.931 274.759 190.494 268.177Z" fill="#997659"/>
<path fill-rule="evenodd" clip-rule="evenodd" d="M157.098 276.031C140.523 280.204 79.8941 287.749 75.7335 288.932C71.4536 290.149 67.7009 281.361 72.9911 279.458C81.4088 276.429 104.603 269.43 118.666 266.574C129.978 264.277 140.3 262.402 147.229 261.305C146.642 241.914 143.959 195.38 145.718 185.329H181.834C180.147 194.967 165.888 265.29 163.238 272.329C162.397 274.842 159.888 275.953 157.098 276.031Z" fill="#B28B67"/>
<path fill-rule="evenodd" clip-rule="evenodd" d="M73.3221 277.055C71.1089 276.643 69.487 276.529 68.4563 276.71C67.2027 276.931 65.4103 277.463 63.079 278.304C63.3354 279.759 65.6399 292.828 69.9924 317.512C73.5404 317.937 75.2552 317.028 75.1367 314.786C75.0182 312.543 74.9391 310.677 74.8995 309.187L79.8104 289.531C79.9049 289.153 79.6749 288.77 79.2966 288.675C79.2902 288.673 79.2837 288.672 79.2772 288.67L76.2291 288C74.9226 286.135 74.1574 284.567 73.9333 283.297C73.7513 282.265 73.9169 280.765 74.4299 278.8L74.4299 278.8C74.6268 278.045 74.1749 277.274 73.4205 277.077C73.3879 277.069 73.3551 277.061 73.3221 277.055Z" fill="#E4E4E4"/>
<path fill-rule="evenodd" clip-rule="evenodd" d="M211.962 343.187C211.172 345.295 210.777 346.872 210.777 347.919C210.777 349.192 210.989 351.049 211.414 353.491C212.89 353.491 226.161 353.491 251.226 353.491C252.261 350.071 251.664 348.225 249.435 347.952C247.206 347.679 245.354 347.433 243.879 347.213L225.375 338.964C225.019 338.805 224.601 338.965 224.443 339.321C224.44 339.327 224.437 339.333 224.435 339.339L223.245 342.225C221.182 343.187 219.505 343.669 218.215 343.669C217.167 343.669 215.719 343.246 213.872 342.399L213.872 342.399C213.163 342.074 212.326 342.385 212.001 343.094C211.987 343.124 211.974 343.156 211.962 343.187Z" fill="#E4E4E4"/>
<path fill-rule="evenodd" clip-rule="evenodd" d="M145.837 185.329C161.752 180.793 176.811 180.793 191.013 185.329C195.954 207.786 207.96 216.699 210.071 251.129C186.072 263.008 156.425 242.657 131.719 254.241C124.66 238.038 134.543 199.015 145.837 185.329Z" fill="#2A2A36"/>
<path fill-rule="evenodd" clip-rule="evenodd" d="M183.491 138.822L205.301 121.417C208.477 115.968 211.782 111.589 215.213 108.279C216.316 107.575 218.344 106.909 217.004 110.689C215.664 114.469 214.425 118.505 215.604 119.389C216.782 120.273 218.993 118.358 220.486 119.909C221.482 120.943 217.585 123.541 208.795 127.702L194.079 146.767L183.491 138.822ZM223.237 143.254L232.814 135.591C233.309 129.698 234.587 126.551 236.649 126.151C238.108 125.136 236.596 132.739 239.499 131.591C242.402 130.442 248.794 123.706 250.255 124.587C252.418 125.891 251.631 131.203 250.103 134.047C247.246 139.361 244.481 141.494 237.319 144.911C233.574 146.697 229.704 149.637 225.707 153.731L223.237 143.254Z" fill="#997659"/>
<path fill-rule="evenodd" clip-rule="evenodd" d="M171.225 137.964C179.661 136.385 190.617 132.622 201.303 122.906L207.874 132.553C201.023 142.207 190.547 150.993 180.299 152.507C172.223 153.699 166.41 144.75 171.225 137.964Z" fill="#24994C"/>
<path fill-rule="evenodd" clip-rule="evenodd" d="M185.567 152.765C194.932 153.409 209.514 148.13 229.315 136.928C236.455 146.789 240.233 154.05 240.647 158.712C224.19 171.324 209.402 178.261 196.658 180.793C198.397 188.275 198.74 195.626 196.794 202.74C192.794 217.367 153.225 211.451 141.096 216.128C128.745 192.091 142.135 179.076 139.279 162.806C136.151 144.989 145.692 115.032 147.807 114.659L167.095 111.258C170.558 124.676 178.559 138.726 185.567 152.765Z" fill="#349DBE"/>
<path d="M246 105.404V106.324C245.999 108.48 245.301 110.578 244.009 112.306C242.718 114.033 240.903 115.296 238.835 115.908C236.767 116.519 234.557 116.446 232.534 115.698C230.512 114.951 228.785 113.57 227.611 111.761C226.437 109.952 225.88 107.812 226.022 105.66C226.164 103.508 226.997 101.46 228.398 99.8208C229.799 98.1815 231.693 97.0391 233.796 96.5639C235.9 96.0886 238.1 96.3061 240.07 97.1837" stroke="#349DBE" stroke-width="2" stroke-linecap="round" stroke-linejoin="round"/>
<path d="M246 98.3237L236 108.334L233 105.334" stroke="#349DBE" stroke-width="2" stroke-linecap="round" stroke-linejoin="round"/>
<defs>
<filter id="filter0_d_410_489" x="0.847918" y="0.171649" width="117.777" height="117.777" filterUnits="userSpaceOnUse" color-interpolation-filters="sRGB">
<feFlood flood-opacity="0" result="BackgroundImageFix"/>
<feColorMatrix in="SourceAlpha" type="matrix" values="0 0 0 0 0 0 0 0 0 0 0 0 0 0 0 0 0 0 127 0" result="hardAlpha"/>
<feOffset dx="3.73637" dy="3.73637"/>
<feGaussianBlur stdDeviation="5.94423"/>
<feColorMatrix type="matrix" values="0 0 0 0 0.396424 0 0 0 0 0.408333 0 0 0 0 0.40048 0 0 0 0.14 0"/>
<feBlend mode="normal" in2="BackgroundImageFix" result="effect1_dropShadow_410_489"/>
<feBlend mode="normal" in="SourceGraphic" in2="effect1_dropShadow_410_489" result="shape"/>
</filter>
</defs>
</svg>
