<svg width="371" height="331" viewBox="0 0 371 331" fill="none" xmlns="http://www.w3.org/2000/svg">
<rect opacity="0.5" x="180.551" y="82.3398" width="190.185" height="38.9356" rx="19.4678" fill="#DBDBDB"/>
<rect opacity="0.5" x="180.551" y="142.241" width="139.27" height="38.9356" rx="19.4678" fill="#DBDBDB"/>
<path fill-rule="evenodd" clip-rule="evenodd" d="M148.313 99.1068C144.882 95.0772 142.559 90.139 142.947 84.6056C144.065 68.6622 166.251 72.1696 170.567 80.2164C174.883 88.2632 174.37 108.675 168.792 110.113C166.568 110.686 161.829 109.281 157.007 106.374L160.034 127.797H142.16L148.313 99.1068Z" fill="#915B3C"/>
<path fill-rule="evenodd" clip-rule="evenodd" d="M146.938 102.696C144.695 92.7121 138.304 85.9065 139.28 81.4441C139.931 78.4693 141.665 76.6193 144.483 75.8942C145.941 69.9963 150.641 67.4877 158.584 68.3684C170.499 69.6894 177.772 74.6394 174.631 85.5313C171.744 85.5313 168.259 84.4869 163.44 86.2763C161.911 86.8441 160.817 88.6048 160.159 91.5585H157.981C155.868 88.0533 153.784 86.7653 151.729 87.6943C149.675 88.6234 149.208 90.8801 150.328 94.4644L149.255 102.696H146.938Z" fill="#191847"/>
<path fill-rule="evenodd" clip-rule="evenodd" d="M92.2595 220.922H177.904C184.485 220.922 189.82 226.259 189.82 232.842V301.382C189.82 307.965 184.485 313.302 177.904 313.302H92.2595C85.6786 313.302 80.3438 307.965 80.3438 301.382V232.842C80.3438 226.259 85.6786 220.922 92.2595 220.922ZM104.175 241.782C102.53 241.782 101.196 243.116 101.196 244.762V289.462C101.196 291.108 102.53 292.442 104.175 292.442H165.988C167.634 292.442 168.967 291.108 168.967 289.462V244.762C168.967 243.116 167.634 241.782 165.988 241.782H104.175Z" fill="#C5CFD6"/>
<path fill-rule="evenodd" clip-rule="evenodd" d="M263.666 309.577C248.982 291.64 239.047 278.343 233.861 269.685C224.98 254.86 217.711 241.669 215.417 236.629C209.947 224.613 228.01 218.987 232.098 224.591C238.285 233.074 251.499 259.768 271.739 304.673L263.666 309.577Z" fill="#B28B67"/>
<path fill-rule="evenodd" clip-rule="evenodd" d="M233.58 304.362L206.254 235.551C200.41 223.008 228.634 214.762 232.929 220.6C242.681 233.853 265.858 286.135 268.764 290.083L233.58 304.362Z" fill="#1D1D2A"/>
<path fill-rule="evenodd" clip-rule="evenodd" d="M160.799 290.561C166.122 282.794 185.483 256.662 196.029 245.85C199.059 242.743 202.016 239.761 204.813 236.982C213.125 228.722 229.68 242.606 221.383 250.13C200.719 268.866 170.569 294.16 168.05 296.415C164.519 299.576 157.454 295.443 160.799 290.561Z" fill="#915B3C"/>
<path fill-rule="evenodd" clip-rule="evenodd" d="M162.045 287.053C160.212 288.563 159.019 289.796 158.467 290.753C157.795 291.916 157.009 293.725 156.109 296.181C157.458 296.96 169.584 303.964 192.487 317.192C195.236 314.612 195.665 312.61 193.772 311.184C191.879 309.758 190.317 308.556 189.086 307.577L176.528 290.272C176.287 289.939 175.821 289.865 175.488 290.107C175.483 290.111 175.477 290.115 175.471 290.119L172.863 292.128C170.469 291.919 168.683 291.474 167.505 290.794C166.547 290.24 165.447 289.089 164.206 287.341L164.206 287.341C163.73 286.67 162.8 286.512 162.13 286.988C162.101 287.009 162.072 287.031 162.045 287.053Z" fill="#E4E4E4"/>
<path fill-rule="evenodd" clip-rule="evenodd" d="M257.351 306.896C256.518 309.121 256.102 310.786 256.102 311.89C256.102 313.234 256.325 315.194 256.773 317.772C258.331 317.772 272.332 317.772 298.777 317.772C299.869 314.162 299.239 312.213 296.887 311.925C294.535 311.637 292.582 311.377 291.026 311.145L271.503 302.439C271.127 302.271 270.687 302.44 270.519 302.816C270.516 302.822 270.514 302.829 270.511 302.835L269.256 305.881C267.079 306.897 265.31 307.405 263.949 307.405C262.843 307.405 261.315 306.958 259.367 306.064L259.367 306.064C258.619 305.721 257.735 306.05 257.392 306.798C257.377 306.83 257.364 306.863 257.351 306.896Z" fill="#E4E4E4"/>
<path fill-rule="evenodd" clip-rule="evenodd" d="M196.419 238.988C173.707 235.287 158.494 232.756 150.78 231.395C128.793 227.517 122.382 215.681 126.173 189.857H166.683C172.044 191.406 194.444 200.984 233.883 218.591C240.979 222.115 239.658 232.505 238.361 235.928C238.308 236.067 226.345 256.572 202.474 297.443L169.334 276.324L196.481 241.477C197.198 240.032 197.177 239.203 196.419 238.988Z" fill="#2A2A36"/>
<path fill-rule="evenodd" clip-rule="evenodd" d="M199.339 180.104L223.095 197.555C229.538 199.294 234.921 201.458 239.243 204.046C240.265 204.977 241.499 206.862 237.264 206.537C233.029 206.211 228.56 206.059 227.975 207.504C227.391 208.949 229.954 210.677 228.773 212.626C227.985 213.926 224.265 210.667 217.612 202.849L194.087 193.09L199.339 180.104ZM108.128 180.707L123.691 180.768C114.082 211.8 108.894 228.265 108.128 230.164C106.405 234.436 110.052 240.943 111.611 244.439C106.532 246.713 107.073 238.293 100.666 241.275C94.8179 243.997 90.3692 248.928 83.6125 244.758C82.7818 244.245 81.8715 242.314 84.0709 240.806C89.5505 237.047 97.4469 230.469 98.5138 228.303C99.9688 225.351 103.174 209.485 108.128 180.707Z" fill="#915B3C"/>
<path fill-rule="evenodd" clip-rule="evenodd" d="M152.355 115.379L158.795 114.274C182.689 134.922 192.503 174.59 221.79 195.603L214.741 204.344C163.932 198.051 151.339 149.666 152.355 115.379Z" fill="#24994C"/>
<path fill-rule="evenodd" clip-rule="evenodd" d="M124.285 196.337C150.106 196.337 169.1 196.337 181.266 196.337C183.87 196.337 183.379 192.576 183.003 190.678C178.659 168.774 161.702 145.164 161.702 113.985L145.266 111.407C131.671 133.279 126.97 160.208 124.285 196.337Z" fill="#DDE3E9"/>
<path fill-rule="evenodd" clip-rule="evenodd" d="M124.74 132.906C122.353 132.22 120.463 130.619 119.069 128.103C113.062 117.26 115.231 111.289 121.651 109.327C128.071 107.365 133.797 111.407 144.025 111.407C144.582 111.407 145.091 111.442 145.554 111.511L150.699 111.805C165.462 161.855 169.533 195.247 162.913 211.982H118.065C115.408 218.18 112.865 223.395 110.437 227.627H98.2165C97.0664 190.427 105.908 158.853 124.74 132.906Z" fill="#349DBE"/>
<path fill-rule="evenodd" clip-rule="evenodd" d="M127.832 186.278C129.243 198.083 131.535 206.651 134.71 211.982H118.066C121.166 204.752 124.421 196.184 127.832 186.278V186.278Z" fill="black" fill-opacity="0.1"/>
<path d="M252 177.437V187.437H236V177.437" stroke="#349DBE" stroke-width="2" stroke-linecap="round" stroke-linejoin="round"/>
<path d="M254 172.437H234V177.437H254V172.437Z" stroke="#349DBE" stroke-width="2" stroke-linecap="round" stroke-linejoin="round"/>
<path d="M244 187.437V172.437" stroke="#349DBE" stroke-width="2" stroke-linecap="round" stroke-linejoin="round"/>
<path d="M244 172.437H248.5C249.163 172.437 249.799 172.174 250.268 171.705C250.737 171.236 251 170.6 251 169.937C251 169.274 250.737 168.638 250.268 168.169C249.799 167.7 249.163 167.437 248.5 167.437C245 167.437 244 172.437 244 172.437Z" stroke="#349DBE" stroke-width="2" stroke-linecap="round" stroke-linejoin="round"/>
<path d="M244 172.437H239.5C238.837 172.437 238.201 172.174 237.732 171.705C237.263 171.236 237 170.6 237 169.937C237 169.274 237.263 168.638 237.732 168.169C238.201 167.7 238.837 167.437 239.5 167.437C243 167.437 244 172.437 244 172.437Z" stroke="#349DBE" stroke-width="2" stroke-linecap="round" stroke-linejoin="round"/>
<g filter="url(#filter0_d_410_492)">
<circle cx="56" cy="55.437" r="47" fill="white"/>
<circle cx="56" cy="55.437" r="46.5" stroke="#CDCDCD" stroke-opacity="0.3"/>
</g>
<circle cx="56" cy="55.437" r="29" fill="#349DBE"/>
<circle cx="56" cy="55.437" r="28.5" stroke="#CDCDCD" stroke-opacity="0.3"/>
<path d="M59.6667 53.6031H52.3333C51.3609 53.6031 50.4282 53.2168 49.7406 52.5292C49.053 51.8416 48.6667 50.9089 48.6667 49.9365C48.6667 48.964 49.053 48.0314 49.7406 47.3438C50.4282 46.6561 51.3609 46.2698 52.3333 46.2698H61.5C61.9862 46.2698 62.4525 46.463 62.7964 46.8068C63.1402 47.1506 63.3333 47.6169 63.3333 48.1031C63.3333 48.5894 63.5265 49.0557 63.8703 49.3995C64.2141 49.7433 64.6804 49.9365 65.1667 49.9365C65.6529 49.9365 66.1192 49.7433 66.463 49.3995C66.8068 49.0557 67 48.5894 67 48.1031C67 46.6445 66.4205 45.2455 65.3891 44.2141C64.3576 43.1826 62.9587 42.6031 61.5 42.6031H57.8333V38.9365C57.8333 38.4503 57.6402 37.9839 57.2964 37.6401C56.9525 37.2963 56.4862 37.1031 56 37.1031C55.5138 37.1031 55.0475 37.2963 54.7036 37.6401C54.3598 37.9839 54.1667 38.4503 54.1667 38.9365V42.6031H52.3333C50.3884 42.6031 48.5232 43.3758 47.1479 44.751C45.7726 46.1263 45 47.9916 45 49.9365C45 51.8814 45.7726 53.7467 47.1479 55.1219C48.5232 56.4972 50.3884 57.2698 52.3333 57.2698H59.6667C60.6391 57.2698 61.5718 57.6561 62.2594 58.3438C62.947 59.0314 63.3333 59.964 63.3333 60.9365C63.3333 61.9089 62.947 62.8416 62.2594 63.5292C61.5718 64.2168 60.6391 64.6032 59.6667 64.6032H50.5C50.0138 64.6032 49.5475 64.41 49.2036 64.0662C48.8598 63.7224 48.6667 63.256 48.6667 62.7698C48.6667 62.2836 48.4735 61.8173 48.1297 61.4735C47.7859 61.1296 47.3196 60.9365 46.8333 60.9365C46.3471 60.9365 45.8808 61.1296 45.537 61.4735C45.1932 61.8173 45 62.2836 45 62.7698C45 64.2285 45.5795 65.6275 46.6109 66.6589C47.6424 67.6904 49.0413 68.2698 50.5 68.2698H54.1667V71.9365C54.1667 72.4227 54.3598 72.889 54.7036 73.2328C55.0475 73.5767 55.5138 73.7698 56 73.7698C56.4862 73.7698 56.9525 73.5767 57.2964 73.2328C57.6402 72.889 57.8333 72.4227 57.8333 71.9365V68.2698H59.6667C61.6116 68.2698 63.4768 67.4972 64.8521 66.1219C66.2274 64.7467 67 62.8814 67 60.9365C67 58.9916 66.2274 57.1263 64.8521 55.751C63.4768 54.3758 61.6116 53.6031 59.6667 53.6031V53.6031Z" fill="white"/>
<defs>
<filter id="filter0_d_410_492" x="0.847918" y="0.28493" width="117.777" height="117.777" filterUnits="userSpaceOnUse" color-interpolation-filters="sRGB">
<feFlood flood-opacity="0" result="BackgroundImageFix"/>
<feColorMatrix in="SourceAlpha" type="matrix" values="0 0 0 0 0 0 0 0 0 0 0 0 0 0 0 0 0 0 127 0" result="hardAlpha"/>
<feOffset dx="3.73637" dy="3.73637"/>
<feGaussianBlur stdDeviation="5.94423"/>
<feColorMatrix type="matrix" values="0 0 0 0 0.396424 0 0 0 0 0.408333 0 0 0 0 0.40048 0 0 0 0.14 0"/>
<feBlend mode="normal" in2="BackgroundImageFix" result="effect1_dropShadow_410_492"/>
<feBlend mode="normal" in="SourceGraphic" in2="effect1_dropShadow_410_492" result="shape"/>
</filter>
</defs>
</svg>
