<svg width="405" height="366" viewBox="0 0 405 366" fill="none" xmlns="http://www.w3.org/2000/svg">
<g filter="url(#filter0_d_410_488)">
<circle cx="342" cy="56" r="47" fill="white"/>
<circle cx="342" cy="56" r="46.5" stroke="#CDCDCD" stroke-opacity="0.3"/>
</g>
<path d="M342 82.1888C356.851 82.1888 368.89 70.1495 368.89 55.2983C368.89 40.447 356.851 28.4077 342 28.4077C327.149 28.4077 315.109 40.447 315.109 55.2983C315.109 70.1495 327.149 82.1888 342 82.1888Z" fill="#349DBE" stroke="#349DBE" stroke-width="5.37811" stroke-linecap="round" stroke-linejoin="round"/>
<path d="M342 39.1641V55.2984L352.756 60.6765" stroke="white" stroke-width="5.37811" stroke-linecap="round" stroke-linejoin="round"/>
<rect opacity="0.5" y="92.0652" width="147.751" height="30.2483" rx="15.1241" fill="#DBDBDB"/>
<rect opacity="0.5" y="138.601" width="108.196" height="30.2483" rx="15.1241" fill="#DBDBDB"/>
<path d="M225.871 119.194C225.793 117.134 226.178 111.384 228.34 104.862" stroke="#349DBE" stroke-width="3.49019" stroke-linecap="round"/>
<path d="M259.539 136.207L270.535 125.824" stroke="#349DBE" stroke-width="3.49019" stroke-linecap="round"/>
<path d="M275.794 172.062L290.267 169.597" stroke="#349DBE" stroke-width="3.49019" stroke-linecap="round"/>
<path fill-rule="evenodd" clip-rule="evenodd" d="M180.808 106.491C184.017 102.724 186.189 98.1069 185.826 92.9335C184.781 78.0274 164.031 81.3065 159.994 88.8298C155.958 96.3532 156.438 115.437 161.654 116.781C163.735 117.318 168.166 116.004 172.677 113.285L169.846 133.315H186.562L180.808 106.491Z" fill="#B28B67"/>
<path fill-rule="evenodd" clip-rule="evenodd" d="M169.521 80.1594C171.724 79.7981 177.657 79.5497 178.751 79.5498C179.45 79.5498 180.207 79.7096 180.621 79.0676C180.961 78.5419 180.836 77.6529 180.937 77.0428C181.055 76.3342 181.222 75.6347 181.391 74.9369C181.871 72.9514 182.598 71.0625 183.614 69.289C185.521 65.9617 188.316 63.3554 191.843 61.8389C195.738 60.1643 200.146 59.7809 204.336 60.1205C208.82 60.4839 212.879 61.9641 217.112 63.3571C221.147 64.6844 225.372 65.2069 229.591 64.5587C233.843 63.9057 237.055 61.6015 240.641 59.4146C244.311 57.1758 248.507 55.7115 252.846 56.0481C256.897 56.3624 260.631 58.035 263.98 60.2694C267.114 62.3599 269.7 64.8751 271.16 68.415C272.731 72.2229 272.729 76.4026 270.147 79.7679C266.403 84.6459 259.453 85.9074 253.671 85.782C250.327 85.7096 247.042 85.0991 243.885 83.9886C239.674 82.5075 236.035 79.9971 232.095 77.9603C230.247 77.0045 228.336 76.2195 226.333 75.6541C224.389 75.1051 222.474 74.8534 220.714 76.0276C218.853 77.2697 217.184 78.49 215.055 79.2676C213.011 80.0136 210.847 80.4309 208.67 80.414C204.435 80.3813 200.26 79.0617 196.146 78.1777C192.792 77.4571 189.203 76.7388 185.783 77.4316C184.356 77.7207 182.271 78.3176 181.756 79.8006C190.431 81.3729 193.838 92.1013 191.392 99.9771C190.072 104.228 182.138 109.197 179.053 106.962C177.099 105.547 178.285 103.688 179.053 102.461C180.524 100.111 181.027 97.093 178.306 95.4572C175.959 94.0463 173.491 97.3968 173.444 97.3931C172.799 97.3422 167.225 94.1898 163.384 89.5896C159.596 89.8142 159.021 87.3161 159.926 85.2731C160.83 83.2301 166.477 80.6589 169.521 80.1594Z" fill="#191847"/>
<g filter="url(#filter1_d_410_488)">
<path d="M193.527 312.324C163.907 312.324 139.894 289.403 139.894 261.129C139.894 232.855 163.907 209.934 193.527 209.934C223.148 209.934 247.16 232.855 247.16 261.129C247.16 289.403 223.148 312.324 193.527 312.324Z" fill="white"/>
</g>
<path fill-rule="evenodd" clip-rule="evenodd" d="M92.1736 304.426C101.098 284.673 107.552 267.473 110.143 258.399C114.579 242.861 117.953 229.189 118.806 224.083C120.84 211.907 103.161 211.198 100.824 217.249C97.2869 226.408 91.1123 256.499 83.693 301.951L92.1736 304.426ZM195.693 242.437C187.504 239.2 158.83 229.071 145 226.206C141.026 225.383 137.174 224.618 133.553 223.926C122.788 221.871 117.212 241.29 127.579 242.782C153.397 246.498 189.999 250.335 193.131 250.766C197.521 251.369 200.839 244.471 195.693 242.437Z" fill="#B28B67"/>
<path fill-rule="evenodd" clip-rule="evenodd" d="M126.948 218.582L171.238 196.036V191.127H165.971C123.122 202.046 101.226 209.043 100.284 212.119C100.273 212.152 100.264 212.186 100.256 212.219C100.234 212.247 100.213 212.276 100.192 212.304C91.7003 223.983 86.6146 280.999 84.9454 285.268L101.218 287.696C107.442 264.614 127.357 248.534 126.828 220.89C126.971 220.079 127.007 219.31 126.948 218.582Z" fill="#1D1D2A"/>
<path fill-rule="evenodd" clip-rule="evenodd" d="M167.558 231.972C171.611 231.161 175.343 230.437 178.536 229.877C199.163 226.259 205.177 215.218 201.621 191.127L163.617 191.127C157.409 192.911 125.146 206.441 108.406 213.637C97.3273 218.4 100.82 235.569 107.094 240.038C107.128 240.312 107.241 240.498 107.442 240.581C141.192 254.569 167.891 247.23 176.81 249.575L180.936 236.561L167.558 231.972Z" fill="#2A2A36"/>
<path fill-rule="evenodd" clip-rule="evenodd" d="M192.893 240.368C195.104 240.579 196.674 240.911 197.602 241.364C198.731 241.915 200.287 242.906 202.269 244.339C201.631 245.648 195.89 257.418 185.048 279.649C181.567 279.087 180.187 277.758 180.91 275.663C181.632 273.568 182.215 271.82 182.657 270.417L183.345 250.437C183.359 250.052 183.681 249.751 184.066 249.765C184.072 249.765 184.079 249.765 184.085 249.766L187.159 249.959C188.905 248.545 190.058 247.266 190.616 246.122C191.069 245.192 191.32 243.725 191.368 241.721L191.368 241.721C191.386 240.952 192.025 240.343 192.794 240.362C192.827 240.363 192.86 240.365 192.893 240.368Z" fill="#E4E4E4"/>
<path fill-rule="evenodd" clip-rule="evenodd" d="M96.2374 300.763C97.0166 302.843 97.4062 304.4 97.4062 305.432C97.4062 306.688 97.197 308.521 96.7785 310.931C95.3214 310.931 82.2262 310.931 57.4929 310.931C56.472 307.556 57.0613 305.734 59.2608 305.465C61.4604 305.196 63.2875 304.953 64.7424 304.736L83.002 296.596C83.3533 296.439 83.7651 296.597 83.9218 296.948C83.9245 296.954 83.927 296.96 83.9296 296.966L85.1033 299.814C87.1395 300.764 88.7941 301.239 90.0671 301.239C91.1014 301.239 92.5298 300.821 94.3523 299.985L94.3523 299.985C95.0517 299.665 95.8786 299.972 96.1992 300.671C96.213 300.701 96.2257 300.732 96.2374 300.763Z" fill="#E4E4E4"/>
<path fill-rule="evenodd" clip-rule="evenodd" d="M128.054 172.054L102.816 160.97C98.3943 156.565 94.125 153.216 90.0076 150.925C88.7764 150.533 86.673 150.414 88.9172 153.692C91.1614 156.97 93.3745 160.519 92.4778 161.668C91.5811 162.816 88.9835 161.548 87.9572 163.416C87.2731 164.662 91.6517 166.152 101.093 167.886L119.995 182.378L128.054 172.054ZM230.09 175.107L215.817 177.939C230.171 204.689 237.869 218.867 238.91 220.472C241.254 224.083 239.067 230.702 238.26 234.188C243.327 235.367 241.329 227.74 247.741 229.333C253.594 230.786 258.557 234.516 264.014 229.486C264.685 228.867 265.176 226.934 262.889 225.942C257.189 223.472 248.768 218.847 247.403 217.051C245.541 214.602 239.77 200.62 230.09 175.107Z" fill="#B28B67"/>
<path fill-rule="evenodd" clip-rule="evenodd" d="M177.022 121.705L170.999 120.672C157.881 133.398 152.527 163.971 143.784 168.018C135.519 171.844 123.801 168.141 109.873 163.142L105.608 172.672C118.263 186.363 145.223 197.93 156.151 191.326C173.622 180.769 177.655 143.062 177.022 121.705Z" fill="#24994C"/>
<path fill-rule="evenodd" clip-rule="evenodd" d="M203.281 197.396C179.131 197.396 161.367 197.396 149.989 197.396C147.553 197.396 148.012 193.879 148.364 192.105C152.427 171.627 168.287 149.552 168.287 120.402L183.659 117.991C196.373 138.44 200.77 163.617 203.281 197.396Z" fill="#DDE3E9"/>
<path fill-rule="evenodd" clip-rule="evenodd" d="M208.594 176.662C219.458 196.259 228.59 210.368 235.99 218.988L247.16 216.8C239.965 172.175 219.127 139.238 184.648 117.991L184.472 117.991L178.561 117.991C164.761 165.033 160.957 196.377 167.148 212.023H215.12C214.361 200.574 211.927 188.467 208.594 176.662H208.594Z" fill="#349DBE"/>
<path d="M71.4163 151.167H68.6663C68.1801 151.167 67.7138 150.973 67.37 150.63C67.0262 150.286 66.833 149.819 66.833 149.333V142.917C66.833 142.43 67.0262 141.964 67.37 141.62C67.7138 141.276 68.1801 141.083 68.6663 141.083H71.4163M77.833 139.25V135.583C77.833 134.854 77.5433 134.154 77.0276 133.639C76.5118 133.123 75.8124 132.833 75.083 132.833L71.4163 141.083V151.167H81.7563C82.1985 151.172 82.6275 151.017 82.9644 150.73C83.3013 150.444 83.5234 150.045 83.5897 149.608L84.8547 141.358C84.8946 141.095 84.8768 140.827 84.8027 140.572C84.7286 140.317 84.5999 140.081 84.4255 139.88C84.2512 139.68 84.0352 139.519 83.7928 139.411C83.5503 139.302 83.2871 139.247 83.0213 139.25H77.833Z" stroke="#349DBE" stroke-width="1.83333" stroke-linecap="round" stroke-linejoin="round"/>
<defs>
<filter id="filter0_d_410_488" x="286.848" y="0.847918" width="117.777" height="117.777" filterUnits="userSpaceOnUse" color-interpolation-filters="sRGB">
<feFlood flood-opacity="0" result="BackgroundImageFix"/>
<feColorMatrix in="SourceAlpha" type="matrix" values="0 0 0 0 0 0 0 0 0 0 0 0 0 0 0 0 0 0 127 0" result="hardAlpha"/>
<feOffset dx="3.73637" dy="3.73637"/>
<feGaussianBlur stdDeviation="5.94423"/>
<feColorMatrix type="matrix" values="0 0 0 0 0.396424 0 0 0 0 0.408333 0 0 0 0 0.40048 0 0 0 0.14 0"/>
<feBlend mode="normal" in2="BackgroundImageFix" result="effect1_dropShadow_410_488"/>
<feBlend mode="normal" in="SourceGraphic" in2="effect1_dropShadow_410_488" result="shape"/>
</filter>
<filter id="filter1_d_410_488" x="111.973" y="182.012" width="188.703" height="183.828" filterUnits="userSpaceOnUse" color-interpolation-filters="sRGB">
<feFlood flood-opacity="0" result="BackgroundImageFix"/>
<feColorMatrix in="SourceAlpha" type="matrix" values="0 0 0 0 0 0 0 0 0 0 0 0 0 0 0 0 0 0 127 0" result="hardAlpha"/>
<feOffset dx="12.7974" dy="12.7974"/>
<feGaussianBlur stdDeviation="20.3594"/>
<feColorMatrix type="matrix" values="0 0 0 0 0.396424 0 0 0 0 0.408333 0 0 0 0 0.40048 0 0 0 0.14 0"/>
<feBlend mode="normal" in2="BackgroundImageFix" result="effect1_dropShadow_410_488"/>
<feBlend mode="normal" in="SourceGraphic" in2="effect1_dropShadow_410_488" result="shape"/>
</filter>
</defs>
</svg>
