<svg width="34" height="34" viewBox="0 0 34 34" fill="none" xmlns="http://www.w3.org/2000/svg">
<path fill-rule="evenodd" clip-rule="evenodd" d="M14.8546 5.82866C15.81 4.18211 18.1878 4.18212 19.1432 5.82866L22.0691 10.8711C22.3388 11.3359 22.805 11.653 23.3363 11.7333L28.195 12.4671C30.3129 12.787 31.0558 15.4611 29.4064 16.8276L25.8663 19.7605C25.3694 20.1722 25.1357 20.8216 25.2564 21.4554L26.2481 26.6631C26.6365 28.703 24.4951 30.2879 22.6576 29.3205L17.8239 26.7753C17.3075 26.5034 16.6903 26.5034 16.1738 26.7753L11.3401 29.3205C9.50269 30.2879 7.36122 28.703 7.74967 26.6631L8.74131 21.4554C8.86201 20.8216 8.62837 20.1722 8.13149 19.7605L4.59138 16.8276C2.94197 15.4611 3.68488 12.787 5.80279 12.4671L10.6615 11.7333C11.1928 11.653 11.6589 11.3359 11.9286 10.8711L14.8546 5.82866ZM17.3052 6.89517C17.1687 6.65994 16.829 6.65995 16.6925 6.89516L13.7666 11.9376C13.1733 12.9601 12.1478 13.6579 10.9788 13.8345L6.12015 14.5683C5.81758 14.614 5.71146 14.996 5.94709 15.1912L9.4872 18.1242C10.5803 19.0298 11.0943 20.4584 10.8288 21.8529L9.83716 27.0606C9.78166 27.352 10.0876 27.5784 10.3501 27.4402L15.1838 24.895C16.3199 24.2968 17.6778 24.2968 18.814 24.895L23.6477 27.4402C23.9102 27.5784 24.2161 27.352 24.1606 27.0606L23.169 21.8529C22.9034 20.4584 23.4174 19.0298 24.5106 18.1242L28.0507 15.1912C28.2863 14.996 28.1802 14.614 27.8776 14.5683L23.0189 13.8345C21.85 13.6579 20.8245 12.9601 20.2311 11.9376L17.3052 6.89517Z" fill="#242424"/>
</svg>
