<svg width="23" height="28" viewBox="0 0 23 28" fill="none" xmlns="http://www.w3.org/2000/svg">
<path d="M12.6222 4.30366V0.392578H0V27.264H12.6222V23.3529C10.0365 23.3529 7.55676 22.3494 5.72843 20.5632C3.9001 18.777 2.87295 16.3544 2.87295 13.8283C2.87295 11.3022 3.9001 8.87958 5.72843 7.09336C7.55676 5.30715 10.0365 4.30366 12.6222 4.30366Z" fill="#314EE7"/>
<path d="M12.6211 4.30469V23.354C15.2067 23.354 17.6865 22.3505 19.5148 20.5643C21.3431 18.778 22.3703 16.3554 22.3703 13.8293C22.3703 11.3032 21.3431 8.8806 19.5148 7.09439C17.6865 5.30817 15.2067 4.30469 12.6211 4.30469Z" fill="#314EE7"/>
</svg>
